<svg width="534" height="541" viewBox="0 0 534 541" fill="none" xmlns="http://www.w3.org/2000/svg">
<path fill-rule="evenodd" clip-rule="evenodd" d="M136.676 84.737C136.676 38.0032 174.561 0.11792 221.295 0.11792H312.423C359.157 0.11792 397.042 38.0032 397.042 84.737H136.676ZM45.5528 188.866C45.5528 142.133 83.438 104.247 130.172 104.247H403.556C450.29 104.247 488.175 142.133 488.175 188.866H45.5528ZM58.5824 208.397C26.2282 208.397 0 234.626 0 266.98C0 299.334 26.2283 325.562 58.5824 325.562H475.169C507.523 325.562 533.751 299.334 533.751 266.98C533.751 234.626 507.523 208.397 475.169 208.397H58.5824ZM52.061 351.617C52.061 398.351 89.9463 436.236 136.68 436.236H410.065C456.799 436.236 494.684 398.351 494.684 351.617H52.061ZM221.295 540.366C174.561 540.366 136.676 502.48 136.676 455.747H403.551C403.551 502.48 365.666 540.366 318.932 540.366H221.295Z" fill="#FFCD4D"/>
</svg>
